name GIL03_static.mot
datacolumns 141
datarows 4
range 1.45000005 1.47500002
endheader

                time	           pelvis_tx	           pelvis_ty	           pelvis_tz	         pelvis_tilt	         pelvis_list	     pelvis_rotation	       hip_flexion_r	     hip_adduction_r	      hip_rotation_r	        knee_angle_r	       ankle_angle_r	    subtalar_angle_r	         mtp_angle_r	       hip_flexion_l	     hip_adduction_l	      hip_rotation_l	        knee_angle_l	       ankle_angle_l	    subtalar_angle_l	         mtp_angle_l	    lumbar_extension	      lumbar_bending	     lumbar_rotation	    ground_marker_px	    ground_marker_py	    ground_marker_pz	    ground_marker_px	    ground_marker_py	    ground_marker_pz	    ground_marker_px	    ground_marker_py	    ground_marker_pz	    ground_marker_px	    ground_marker_py	    ground_marker_pz	    ground_marker_px	    ground_marker_py	    ground_marker_pz	    ground_marker_px	    ground_marker_py	    ground_marker_pz	    ground_marker_px	    ground_marker_py	    ground_marker_pz	    ground_marker_px	    ground_marker_py	    ground_marker_pz	    ground_marker_px	    ground_marker_py	    ground_marker_pz	    ground_marker_px	    ground_marker_py	    ground_marker_pz	    ground_marker_px	    ground_marker_py	    ground_marker_pz	    ground_marker_px	    ground_marker_py	    ground_marker_pz	    ground_marker_px	    ground_marker_py	    ground_marker_pz	    ground_marker_px	    ground_marker_py	    ground_marker_pz	    ground_marker_px	    ground_marker_py	    ground_marker_pz	    ground_marker_px	    ground_marker_py	    ground_marker_pz	    ground_marker_px	    ground_marker_py	    ground_marker_pz	    ground_marker_px	    ground_marker_py	    ground_marker_pz	    ground_marker_px	    ground_marker_py	    ground_marker_pz	    ground_marker_px	    ground_marker_py	    ground_marker_pz	    ground_marker_px	    ground_marker_py	    ground_marker_pz	    ground_marker_px	    ground_marker_py	    ground_marker_pz	    ground_marker_px	    ground_marker_py	    ground_marker_pz	    ground_marker_px	    ground_marker_py	    ground_marker_pz	    ground_marker_px	    ground_marker_py	    ground_marker_pz	    ground_marker_px	    ground_marker_py	    ground_marker_pz	    ground_marker_px	    ground_marker_py	    ground_marker_pz	    ground_marker_px	    ground_marker_py	    ground_marker_pz	    ground_marker_px	    ground_marker_py	    ground_marker_pz	    ground_marker_px	    ground_marker_py	    ground_marker_pz	    ground_marker_px	    ground_marker_py	    ground_marker_pz	    ground_marker_px	    ground_marker_py	    ground_marker_pz	    ground_marker_px	    ground_marker_py	    ground_marker_pz	    ground_marker_px	    ground_marker_py	    ground_marker_pz	    ground_marker_px	    ground_marker_py	    ground_marker_pz	    ground_marker_px	    ground_marker_py	    ground_marker_pz	    ground_marker_px	    ground_marker_py	    ground_marker_pz	    ground_marker_px	    ground_marker_py	    ground_marker_pz	    ground_marker_px	    ground_marker_py	    ground_marker_pz	
          1.45000005	          1.52741504	          0.90559208	         -0.25676215	         -7.20269012	         -2.78691125	          5.62900686	          3.38700104	         -2.42447042	          8.94454765	          1.27192438	          3.47656393	          0.00000000	          0.00000000	          6.40342140	         -6.32788849	         10.84827709	         -0.86584377	          1.63310683	          0.00000000	          0.00000000	          1.44994164	         -2.69110274	         -5.09965467	          1.45622945	          0.83597088	         -0.24804780	          1.46755087	          0.83663571	         -0.19041719	          1.44490790	          0.83530605	         -0.30567843	          1.44369316	          0.46031043	         -0.16664669	          1.43476546	          0.46669817	         -0.34066099	          1.41980863	          0.06318645	         -0.17062965	          1.41598213	          0.06576820	         -0.35793489	          1.52741504	          0.90559208	         -0.25676215	          1.53836608	          0.90694731	         -0.15647796	          1.51646411	          0.90423679	         -0.35704634	          1.38007176	          0.95894998	         -0.21570605	          1.37312758	          0.95871019	         -0.27024722	          1.45822203	          0.46273652	         -0.11365587	          1.43927801	          0.47170657	         -0.39474243	          1.42850721	          0.45529106	         -0.21648002	          1.42660797	          0.45406899	         -0.28670615	          1.40996671	          0.06340508	         -0.13340953	          1.40903068	          0.06772320	         -0.39575163	          1.44216728	          0.07793009	         -0.19796164	          1.43860245	          0.07667349	         -0.33507344	          1.37308455	          0.04229392	         -0.16593166	          1.36905587	          0.04935153	         -0.34543076	          1.49455392	          1.30134010	         -0.26808649	          1.57407534	          1.14551020	         -0.25820470	          1.40739727	          1.34604096	         -0.25807053	          1.51144791	          1.29658461	         -0.20831805	          1.50878525	          1.28912449	         -0.31700060	          1.53309596	          0.04106176	         -0.12493318	          1.53158092	          0.03897392	         -0.40863025	          1.59139681	          0.62461644	         -0.19641663	          1.56973469	          0.62916929	         -0.31728667	          1.52546990	          0.68028796	         -0.14247911	          1.49905264	          0.67634791	         -0.37232921	          1.51337636	          0.59593165	         -0.13664612	          1.49689567	          0.58824903	         -0.37042412	          1.41102862	          0.18568498	         -0.06027636	          1.36207438	          0.18767449	         -0.44541454	          1.41532898	          0.19266205	         -0.10178359	          1.38192987	          0.19165546	         -0.40742621	
          1.45833337	          1.52750456	          0.90551859	         -0.25678012	         -7.23580551	         -2.79509020	          5.64157104	          3.41905212	         -2.41346908	          8.92615414	          1.26957488	          3.47689009	          0.00000000	          0.00000000	          6.43028831	         -6.33445644	         10.93930435	         -0.84912843	          1.63162172	          0.00000000	          0.00000000	          1.42042267	         -2.69727325	         -5.09401464	          1.45627999	          0.83593982	         -0.24804337	          1.46761656	          0.83660156	         -0.19041565	          1.44494355	          0.83527809	         -0.30567110	          1.44374752	          0.46031809	         -0.16671300	          1.43474233	          0.46667451	         -0.34068874	          1.41985595	          0.06318607	         -0.17067896	          1.41597891	          0.06575253	         -0.35793069	          1.52750456	          0.90551859	         -0.25678012	          1.53848171	          0.90687364	         -0.15650012	          1.51652741	          0.90416354	         -0.35706013	          1.38018775	          0.95896590	         -0.21571523	          1.37321663	          0.95873934	         -0.27025262	          1.45827270	          0.46273476	         -0.11372074	          1.43932772	          0.47168478	         -0.39476386	          1.42839527	          0.45528597	         -0.21655212	          1.42649639	          0.45395318	         -0.28676474	          1.41001165	          0.06340662	         -0.13345948	          1.40907848	          0.06770223	         -0.39575708	          1.44215894	          0.07784275	         -0.19799058	          1.43863595	          0.07665597	         -0.33508527	          1.37309563	          0.04234076	         -0.16596164	          1.36911666	          0.04931258	         -0.34539878	          1.49468791	          1.30125022	         -0.26805830	          1.57404184	          1.14533544	         -0.25817102	          1.40757978	          1.34605026	         -0.25802824	          1.51159763	          1.29648876	         -0.20830068	          1.50888860	          1.28900886	         -0.31696901	          1.53313136	          0.04105604	         -0.12496762	          1.53160286	          0.03897154	         -0.40864247	          1.59144855	          0.62442809	         -0.19634350	          1.56966710	          0.62900752	         -0.31728074	          1.52560878	          0.68015617	         -0.14246202	          1.49909353	          0.67625672	         -0.37233222	          1.51340222	          0.59579301	         -0.13664941	          1.49689567	          0.58805436	         -0.37042943	          1.41105247	          0.18566775	         -0.06031721	          1.36212718	          0.18766627	         -0.44542795	          1.41539407	          0.19261160	         -0.10184402	          1.38196933	          0.19162604	         -0.40741757	
          1.46666670	          1.52760267	          0.90543342	         -0.25680298	         -7.27266121	         -2.80202985	          5.65738773	          3.44876289	         -2.40381718	          8.89794350	          1.27753794	          3.47148561	          0.00000000	          0.00000000	          6.46124077	         -6.33649921	         11.02830696	         -0.83303708	          1.62940145	          0.00000000	          0.00000000	          1.39151251	         -2.69136310	         -5.09302282	          1.45633507	          0.83590168	         -0.24804322	          1.46768928	          0.83655733	         -0.19041893	          1.44498086	          0.83524603	         -0.30566752	          1.44376957	          0.46030778	         -0.16678672	          1.43472290	          0.46663302	         -0.34070939	          1.41991138	          0.06318700	         -0.17072839	          1.41598117	          0.06573761	         -0.35792023	          1.52760267	          0.90543342	         -0.25680298	          1.53861034	          0.90678358	         -0.15653041	          1.51659513	          0.90408325	         -0.35707557	          1.38031554	          0.95898092	         -0.21571806	          1.37331545	          0.95876706	         -0.27025488	          1.45828462	          0.46271363	         -0.11379121	          1.43937671	          0.47164357	         -0.39477867	          1.42827070	          0.45528075	         -0.21683741	          1.42634165	          0.45386082	         -0.28678671	          1.41006064	          0.06340940	         -0.13351057	          1.40912890	          0.06768226	         -0.39575559	          1.44222820	          0.07781698	         -0.19803971	          1.43866909	          0.07663818	         -0.33508179	          1.37310588	          0.04238930	         -0.16599447	          1.36920333	          0.04919931	         -0.34534407	          1.49483693	          1.30114985	         -0.26805824	          1.57401145	          1.14514208	         -0.25819868	          1.40773392	          1.34607625	         -0.25801903	          1.51175904	          1.29636681	         -0.20831065	          1.50900877	          1.28889358	         -0.31696865	          1.53316939	          0.04104976	         -0.12500162	          1.53162444	          0.03896573	         -0.40865120	          1.59149063	          0.62420505	         -0.19626211	          1.56958711	          0.62883025	         -0.31728929	          1.52568924	          0.68000877	         -0.14246644	          1.49912119	          0.67614573	         -0.37235224	          1.51334941	          0.59558296	         -0.13672087	          1.49686706	          0.58786583	         -0.37043414	          1.41106510	          0.18565066	         -0.06036295	          1.36214387	          0.18765907	         -0.44541752	          1.41544008	          0.19258775	         -0.10190661	          1.38199055	          0.19162901	         -0.40741107	
          1.47500002	          1.52770829	          0.90534526	         -0.25682986	         -7.30920601	         -2.80902743	          5.67749977	          3.47031403	         -2.39412069	          8.85980415	          1.29763949	          3.46059060	          0.00000000	          0.00000000	          6.49402428	         -6.33211374	         11.08413124	         -0.82251132	          1.62611639	          0.00000000	          0.00000000	          1.40952969	         -2.70564222	         -5.02697468	          1.45639849	          0.83586025	         -0.24804366	          1.46777451	          0.83650839	         -0.19042359	          1.44502246	          0.83521211	         -0.30566373	          1.44375205	          0.46028420	         -0.16686292	          1.43472195	          0.46658063	         -0.34069869	          1.41996646	          0.06319051	         -0.17077494	          1.41599810	          0.06572732	         -0.35790253	          1.52770829	          0.90534526	         -0.25682986	          1.53875315	          0.90668803	         -0.15656903	          1.51666343	          0.90400249	         -0.35709071	          1.38045561	          0.95899278	         -0.21571659	          1.37342405	          0.95878845	         -0.27025488	          1.45825207	          0.46267742	         -0.11386269	          1.43940842	          0.47158822	         -0.39476541	          1.42814374	          0.45526585	         -0.21728399	          1.42627335	          0.45379704	         -0.28673258	          1.41010618	          0.06341451	         -0.13355964	          1.40916884	          0.06767031	         -0.39574215	          1.44229531	          0.07778370	         -0.19809327	          1.43870497	          0.07661625	         -0.33506691	          1.37311649	          0.04243019	         -0.16602983	          1.36929345	          0.04905102	         -0.34527791	          1.49504900	          1.30108368	         -0.26809672	          1.57417655	          1.14504552	         -0.25834283	          1.40785372	          1.34610438	         -0.25800684	          1.51206076	          1.29629874	         -0.20839827	          1.50914097	          1.28881824	         -0.31700423	          1.53320467	          0.04104476	         -0.12503237	          1.53164124	          0.03896241	         -0.40865713	          1.59152222	          0.62396049	         -0.19617119	          1.56953919	          0.62866330	         -0.31732982	          1.52573109	          0.67979801	         -0.14245260	          1.49914563	          0.67602652	         -0.37239763	          1.51325870	          0.59532350	         -0.13683225	          1.49686015	          0.58772224	         -0.37043455	          1.41106200	          0.18563439	         -0.06041181	          1.36211371	          0.18765259	         -0.44537595	          1.41546130	          0.19258063	         -0.10197788	          1.38201106	          0.19165908	         -0.40739614	
